<?xml version="1.0" standalone="no"?>
<!DOCTYPE svg PUBLIC "-//W3C//DTD SVG 20010904//EN"
 "http://www.w3.org/TR/2001/REC-SVG-20010904/DTD/svg10.dtd">
<svg version="1.0" xmlns="http://www.w3.org/2000/svg"
 width="260.000000pt" height="260.000000pt" viewBox="0 0 260.000000 260.000000"
 preserveAspectRatio="xMidYMid meet">
<metadata>
Created by potrace 1.16, written by Peter Selinger 2001-2019
</metadata>
<g transform="translate(0.000000,260.000000) scale(0.100000,-0.100000)"
fill="#000000" stroke="none">
<path d="M0 1300 l0 -1300 1300 0 1300 0 0 1300 0 1300 -1300 0 -1300 0 0
-1300z m2495 0 l0 -1195 -1195 0 -1195 0 -3 1185 c-1 652 0 1191 3 1198 3 10
248 12 1197 10 l1193 -3 0 -1195z"/>
<path d="M1070 2279 c-188 -9 -265 -49 -329 -169 -41 -76 -131 -420 -131 -500
0 -102 59 -162 261 -265 136 -69 159 -90 159 -142 0 -36 -50 -258 -84 -377
-23 -77 -50 -96 -137 -96 -49 0 -72 4 -84 17 -20 19 -19 24 41 267 24 98 44
184 44 191 0 10 -34 13 -144 14 -130 2 -146 0 -154 -16 -5 -10 -33 -115 -62
-233 -95 -389 -74 -454 156 -481 98 -12 322 -4 394 13 101 24 172 85 216 184
35 80 144 525 144 591 0 110 -38 149 -260 270 -96 52 -149 87 -159 104 -13 24
-12 39 22 175 21 81 44 159 53 171 20 31 53 43 120 43 69 0 94 -13 94 -47 0
-21 -46 -225 -66 -295 -5 -17 7 -18 148 -18 l154 0 39 163 c62 262 58 351 -19
398 -59 36 -201 49 -416 38z"/>
<path d="M1766 2143 c-16 -65 -75 -307 -132 -538 -56 -231 -139 -568 -183
-749 -45 -181 -81 -335 -81 -342 0 -12 53 -14 299 -14 213 0 302 3 307 11 4 7
19 61 34 120 l28 109 -149 0 c-104 0 -149 3 -149 11 0 7 39 170 86 363 48 193
129 524 181 736 51 212 96 391 98 398 3 9 -32 12 -153 12 l-158 0 -28 -117z"/>
</g>
</svg>
